<svg width="34" height="34" viewBox="0 0 34 34" fill="none" xmlns="http://www.w3.org/2000/svg">
<path id="Ellipse 17" d="M17 34C7.61116 34 -1.15349e-06 26.3888 -7.43094e-07 17C-3.32694e-07 7.61116 7.61116 -1.15349e-06 17 -7.43094e-07C26.3888 -3.32694e-07 34 7.61116 34 17C34 26.3888 26.3888 34 17 34ZM17 7.06287C11.5119 7.06287 7.06287 11.5119 7.06287 17C7.06287 22.4881 11.5119 26.9371 17 26.9371C22.4881 26.9371 26.9371 22.4881 26.9371 17C26.9371 11.5119 22.4881 7.06287 17 7.06287Z" fill="#FF0088"/>
</svg>
