<svg width="105" height="30" viewBox="0 0 105 30" fill="none" xmlns="http://www.w3.org/2000/svg">
<path d="M75 0H105V30H75V0Z" fill="#FFF000"/>
<path d="M29 14.5C29 22.5081 22.5081 29 14.5 29C6.49187 29 0 22.5081 0 14.5C0 6.49187 6.49187 0 14.5 0C22.5081 0 29 6.49187 29 14.5ZM6.02421 14.5C6.02421 19.181 9.81895 22.9758 14.5 22.9758C19.181 22.9758 22.9758 19.181 22.9758 14.5C22.9758 9.81895 19.181 6.02421 14.5 6.02421C9.81895 6.02421 6.02421 9.81895 6.02421 14.5Z" fill="#FF0088"/>
<path d="M51.9986 1L67.5871 28H36.4102L51.9986 1Z" fill="#5522FF"/>
</svg>
