<svg width="122" height="93" viewBox="0 0 122 93" fill="none" xmlns="http://www.w3.org/2000/svg">
<g id="Vector">
<path d="M30.1207 0H104.63V74.0847H30.1207V0Z" fill="#FFF000"/>
<path d="M72.9238 47.2881C72.9238 67.3108 56.5992 83.5424 36.4619 83.5424C16.3245 83.5424 0 67.3108 0 47.2881C0 27.2655 16.3245 11.0339 36.4619 11.0339C56.5992 11.0339 72.9238 27.2655 72.9238 47.2881ZM15.1486 47.2881C15.1486 58.9921 24.6909 68.4801 36.4619 68.4801C48.2329 68.4801 57.7752 58.9921 57.7752 47.2881C57.7752 35.5841 48.2329 26.0962 36.4619 26.0962C24.6909 26.0962 15.1486 35.5841 15.1486 47.2881Z" fill="#FF0088"/>
<path d="M72.9238 26.7966L92.1445 59.8983L111.365 93H34.4823L72.9238 26.7966Z" fill="#5522FF"/>
<path d="M119.097 16.8379V4.57901H122V16.8379H119.097ZM112.449 11.7171V9.01702H120.783V11.7171H112.449ZM114.134 4.57901V16.8379H111.232V4.57901H114.134Z" fill="black"/>
<path d="M104.63 7.06181C103.996 7.06181 103.444 7.20147 102.976 7.48079C102.508 7.74976 102.144 8.15839 101.883 8.70667C101.623 9.25496 101.493 9.92221 101.493 10.7084C101.493 11.505 101.613 12.1774 101.852 12.7257C102.102 13.2636 102.456 13.6723 102.914 13.9516C103.371 14.2206 103.912 14.355 104.537 14.355C104.974 14.355 105.359 14.293 105.691 14.1688C106.035 14.0447 106.357 13.8275 106.659 13.5171V12.2912H104.474V9.66876H109.39V14.8516C108.766 15.6068 108.043 16.1654 107.221 16.5275C106.409 16.8792 105.515 17.0551 104.537 17.0551C103.34 17.0551 102.289 16.8016 101.384 16.2947C100.479 15.7775 99.7766 15.043 99.2772 14.0913C98.7778 13.1395 98.5281 12.0119 98.5281 10.7084C98.5281 9.40496 98.783 8.27735 99.2928 7.32561C99.8026 6.37387 100.515 5.64455 101.431 5.13764C102.357 4.62039 103.423 4.36177 104.63 4.36177C105.743 4.36177 106.685 4.57384 107.455 4.99798C108.235 5.42213 108.834 6.04283 109.25 6.86009L106.956 8.41184C106.727 7.99804 106.404 7.67217 105.988 7.43423C105.572 7.18595 105.119 7.06181 104.63 7.06181Z" fill="black"/>
<path d="M91.7819 14.355C92.479 14.355 93.0148 14.1585 93.3893 13.7654C93.7743 13.3619 93.9668 12.7567 93.9668 11.9498V4.57901H96.8696V12.0585C96.8696 13.1136 96.6615 14.0188 96.2453 14.774C95.8395 15.5189 95.2517 16.0878 94.4818 16.481C93.7223 16.8637 92.8223 17.0551 91.7819 17.0551C90.7415 17.0551 89.8363 16.8637 89.0664 16.481C88.3069 16.0878 87.719 15.5189 87.3028 14.774C86.8971 14.0188 86.6942 13.1136 86.6942 12.0585V4.57901H89.597V11.8878C89.597 12.7154 89.7895 13.3361 90.1744 13.7499C90.5594 14.1533 91.0952 14.355 91.7819 14.355Z" fill="black"/>
<path d="M81.7882 16.8379V4.57901H84.691V16.8379H81.7882ZM75.1399 11.7171V9.01702H83.4737V11.7171H75.1399ZM76.8254 4.57901V16.8379H73.9226V4.57901H76.8254Z" fill="black"/>
</g>
</svg>
