<svg width="423" height="121" viewBox="0 0 423 121" fill="none" xmlns="http://www.w3.org/2000/svg">
<path d="M302.143 0H423V121H302.143V0Z" fill="#FFF000"/>
<path d="M116.829 58.4833C116.829 90.7828 90.6756 116.967 58.4143 116.967C26.153 116.967 0 90.7828 0 58.4833C0 26.1839 26.153 0 58.4143 0C90.6756 0 116.829 26.1839 116.829 58.4833ZM24.269 58.4833C24.269 77.3636 39.5564 92.669 58.4143 92.669C77.2722 92.669 92.5596 77.3636 92.5596 58.4833C92.5596 39.6031 77.2722 24.2977 58.4143 24.2977C39.5564 24.2977 24.269 39.6031 24.269 58.4833Z" fill="#FF0088"/>
<path d="M209.48 4.03333L272.279 112.933H146.681L209.48 4.03333Z" fill="#5522FF"/>
</svg>
